<mxfile host="app.diagrams.net" modified="2021-02-24T16:07:05.464Z" agent="5.0 (Macintosh; Intel Mac OS X 10_14_6) AppleWebKit/537.36 (KHTML, like Gecko) Chrome/88.0.4324.182 Safari/537.36" etag="WCXaZGBkYfkjSImPUecX" version="14.4.2" type="github">
  <diagram id="1l0xaKj10nqvTW4_y1C1" name="Page-1">
    <mxGraphModel dx="972" dy="1866" grid="1" gridSize="10" guides="1" tooltips="1" connect="1" arrows="1" fold="1" page="1" pageScale="1" pageWidth="827" pageHeight="1169" math="0" shadow="0">
      <root>
        <mxCell id="0" />
        <mxCell id="1" parent="0" />
        <mxCell id="NQ4KsFK5fOsxQA7J7TIk-2" value="" style="rounded=0;whiteSpace=wrap;html=1;" vertex="1" parent="1">
          <mxGeometry x="110" y="190" width="170" height="30" as="geometry" />
        </mxCell>
        <mxCell id="NQ4KsFK5fOsxQA7J7TIk-7" value="" style="endArrow=none;html=1;entryX=0.75;entryY=0;entryDx=0;entryDy=0;exitX=0.75;exitY=1;exitDx=0;exitDy=0;" edge="1" parent="1" source="NQ4KsFK5fOsxQA7J7TIk-2" target="NQ4KsFK5fOsxQA7J7TIk-2">
          <mxGeometry width="50" height="50" relative="1" as="geometry">
            <mxPoint x="180" y="270" as="sourcePoint" />
            <mxPoint x="180" y="240" as="targetPoint" />
          </mxGeometry>
        </mxCell>
        <mxCell id="NQ4KsFK5fOsxQA7J7TIk-8" value="" style="endArrow=none;html=1;entryX=0.75;entryY=0;entryDx=0;entryDy=0;exitX=0.75;exitY=1;exitDx=0;exitDy=0;" edge="1" parent="1">
          <mxGeometry width="50" height="50" relative="1" as="geometry">
            <mxPoint x="200" y="220" as="sourcePoint" />
            <mxPoint x="200" y="190" as="targetPoint" />
          </mxGeometry>
        </mxCell>
        <mxCell id="NQ4KsFK5fOsxQA7J7TIk-9" value="" style="endArrow=none;html=1;entryX=0.25;entryY=0;entryDx=0;entryDy=0;exitX=0.25;exitY=1;exitDx=0;exitDy=0;" edge="1" parent="1" source="NQ4KsFK5fOsxQA7J7TIk-2" target="NQ4KsFK5fOsxQA7J7TIk-2">
          <mxGeometry width="50" height="50" relative="1" as="geometry">
            <mxPoint x="210" y="230" as="sourcePoint" />
            <mxPoint x="210" y="200" as="targetPoint" />
          </mxGeometry>
        </mxCell>
        <mxCell id="NQ4KsFK5fOsxQA7J7TIk-10" value="" style="rounded=0;whiteSpace=wrap;html=1;" vertex="1" parent="1">
          <mxGeometry x="280" y="190" width="170" height="30" as="geometry" />
        </mxCell>
        <mxCell id="NQ4KsFK5fOsxQA7J7TIk-11" value="" style="endArrow=none;html=1;entryX=0.75;entryY=0;entryDx=0;entryDy=0;exitX=0.75;exitY=1;exitDx=0;exitDy=0;" edge="1" parent="1" source="NQ4KsFK5fOsxQA7J7TIk-10" target="NQ4KsFK5fOsxQA7J7TIk-10">
          <mxGeometry width="50" height="50" relative="1" as="geometry">
            <mxPoint x="190" y="280" as="sourcePoint" />
            <mxPoint x="190" y="250" as="targetPoint" />
          </mxGeometry>
        </mxCell>
        <mxCell id="NQ4KsFK5fOsxQA7J7TIk-12" value="" style="endArrow=none;html=1;entryX=0.5;entryY=0;entryDx=0;entryDy=0;exitX=0.5;exitY=1;exitDx=0;exitDy=0;" edge="1" parent="1" source="NQ4KsFK5fOsxQA7J7TIk-10" target="NQ4KsFK5fOsxQA7J7TIk-10">
          <mxGeometry width="50" height="50" relative="1" as="geometry">
            <mxPoint x="210" y="230" as="sourcePoint" />
            <mxPoint x="210" y="200" as="targetPoint" />
          </mxGeometry>
        </mxCell>
        <mxCell id="NQ4KsFK5fOsxQA7J7TIk-13" value="" style="endArrow=none;html=1;entryX=0.25;entryY=0;entryDx=0;entryDy=0;exitX=0.25;exitY=1;exitDx=0;exitDy=0;" edge="1" parent="1" source="NQ4KsFK5fOsxQA7J7TIk-10" target="NQ4KsFK5fOsxQA7J7TIk-10">
          <mxGeometry width="50" height="50" relative="1" as="geometry">
            <mxPoint x="220" y="240" as="sourcePoint" />
            <mxPoint x="220" y="210" as="targetPoint" />
          </mxGeometry>
        </mxCell>
        <mxCell id="NQ4KsFK5fOsxQA7J7TIk-14" value="" style="rounded=0;whiteSpace=wrap;html=1;" vertex="1" parent="1">
          <mxGeometry x="480" y="190" width="160" height="30" as="geometry" />
        </mxCell>
        <mxCell id="NQ4KsFK5fOsxQA7J7TIk-15" value="" style="endArrow=none;html=1;entryX=0.75;entryY=0;entryDx=0;entryDy=0;exitX=0.75;exitY=1;exitDx=0;exitDy=0;" edge="1" parent="1" source="NQ4KsFK5fOsxQA7J7TIk-14" target="NQ4KsFK5fOsxQA7J7TIk-14">
          <mxGeometry width="50" height="50" relative="1" as="geometry">
            <mxPoint x="390" y="280" as="sourcePoint" />
            <mxPoint x="390" y="250" as="targetPoint" />
          </mxGeometry>
        </mxCell>
        <mxCell id="NQ4KsFK5fOsxQA7J7TIk-16" value="" style="endArrow=none;html=1;entryX=0.5;entryY=0;entryDx=0;entryDy=0;exitX=0.5;exitY=1;exitDx=0;exitDy=0;" edge="1" parent="1" source="NQ4KsFK5fOsxQA7J7TIk-14" target="NQ4KsFK5fOsxQA7J7TIk-14">
          <mxGeometry width="50" height="50" relative="1" as="geometry">
            <mxPoint x="410" y="230" as="sourcePoint" />
            <mxPoint x="410" y="200" as="targetPoint" />
          </mxGeometry>
        </mxCell>
        <mxCell id="NQ4KsFK5fOsxQA7J7TIk-17" value="" style="endArrow=none;html=1;entryX=0.25;entryY=0;entryDx=0;entryDy=0;exitX=0.25;exitY=1;exitDx=0;exitDy=0;" edge="1" parent="1" source="NQ4KsFK5fOsxQA7J7TIk-14" target="NQ4KsFK5fOsxQA7J7TIk-14">
          <mxGeometry width="50" height="50" relative="1" as="geometry">
            <mxPoint x="420" y="240" as="sourcePoint" />
            <mxPoint x="420" y="210" as="targetPoint" />
          </mxGeometry>
        </mxCell>
        <mxCell id="NQ4KsFK5fOsxQA7J7TIk-18" value="1" style="text;html=1;strokeColor=none;fillColor=none;align=center;verticalAlign=middle;whiteSpace=wrap;rounded=0;" vertex="1" parent="1">
          <mxGeometry x="110" y="195" width="40" height="20" as="geometry" />
        </mxCell>
        <mxCell id="NQ4KsFK5fOsxQA7J7TIk-21" value="2" style="text;html=1;strokeColor=none;fillColor=none;align=center;verticalAlign=middle;whiteSpace=wrap;rounded=0;" vertex="1" parent="1">
          <mxGeometry x="160" y="195" width="40" height="20" as="geometry" />
        </mxCell>
        <mxCell id="NQ4KsFK5fOsxQA7J7TIk-23" value="3" style="text;html=1;strokeColor=none;fillColor=none;align=center;verticalAlign=middle;whiteSpace=wrap;rounded=0;" vertex="1" parent="1">
          <mxGeometry x="200" y="195" width="44" height="20" as="geometry" />
        </mxCell>
        <mxCell id="NQ4KsFK5fOsxQA7J7TIk-25" value="2" style="text;html=1;strokeColor=none;fillColor=none;align=center;verticalAlign=middle;whiteSpace=wrap;rounded=0;" vertex="1" parent="1">
          <mxGeometry x="480" y="195" width="40" height="20" as="geometry" />
        </mxCell>
        <mxCell id="NQ4KsFK5fOsxQA7J7TIk-26" value="5" style="text;html=1;strokeColor=none;fillColor=none;align=center;verticalAlign=middle;whiteSpace=wrap;rounded=0;" vertex="1" parent="1">
          <mxGeometry x="520" y="195" width="40" height="20" as="geometry" />
        </mxCell>
        <mxCell id="NQ4KsFK5fOsxQA7J7TIk-29" value="6" style="text;html=1;strokeColor=none;fillColor=none;align=center;verticalAlign=middle;whiteSpace=wrap;rounded=0;" vertex="1" parent="1">
          <mxGeometry x="560" y="195" width="40" height="20" as="geometry" />
        </mxCell>
        <mxCell id="NQ4KsFK5fOsxQA7J7TIk-30" value="0" style="text;html=1;strokeColor=none;fillColor=none;align=center;verticalAlign=middle;whiteSpace=wrap;rounded=0;" vertex="1" parent="1">
          <mxGeometry x="236" y="196" width="44" height="20" as="geometry" />
        </mxCell>
        <mxCell id="NQ4KsFK5fOsxQA7J7TIk-31" value="0" style="text;html=1;strokeColor=none;fillColor=none;align=center;verticalAlign=middle;whiteSpace=wrap;rounded=0;" vertex="1" parent="1">
          <mxGeometry x="280" y="196" width="44" height="20" as="geometry" />
        </mxCell>
        <mxCell id="NQ4KsFK5fOsxQA7J7TIk-32" value="m=3" style="text;html=1;strokeColor=none;fillColor=none;align=center;verticalAlign=middle;whiteSpace=wrap;rounded=0;" vertex="1" parent="1">
          <mxGeometry x="280" y="150" width="44" height="20" as="geometry" />
        </mxCell>
        <mxCell id="NQ4KsFK5fOsxQA7J7TIk-33" value="n=3" style="text;html=1;strokeColor=none;fillColor=none;align=center;verticalAlign=middle;whiteSpace=wrap;rounded=0;" vertex="1" parent="1">
          <mxGeometry x="520" y="150" width="44" height="20" as="geometry" />
        </mxCell>
        <mxCell id="NQ4KsFK5fOsxQA7J7TIk-34" value="" style="shape=flexArrow;endArrow=classic;html=1;width=8.8;endSize=3;" edge="1" parent="1">
          <mxGeometry width="50" height="50" relative="1" as="geometry">
            <mxPoint x="222" y="270" as="sourcePoint" />
            <mxPoint x="221.8" y="230" as="targetPoint" />
          </mxGeometry>
        </mxCell>
        <mxCell id="NQ4KsFK5fOsxQA7J7TIk-35" value="0" style="text;html=1;strokeColor=none;fillColor=none;align=center;verticalAlign=middle;whiteSpace=wrap;rounded=0;" vertex="1" parent="1">
          <mxGeometry x="320" y="195" width="44" height="20" as="geometry" />
        </mxCell>
        <mxCell id="NQ4KsFK5fOsxQA7J7TIk-36" value="0" style="text;html=1;strokeColor=none;fillColor=none;align=center;verticalAlign=middle;whiteSpace=wrap;rounded=0;" vertex="1" parent="1">
          <mxGeometry x="364" y="195" width="44" height="20" as="geometry" />
        </mxCell>
        <mxCell id="NQ4KsFK5fOsxQA7J7TIk-37" value="0" style="text;html=1;strokeColor=none;fillColor=none;align=center;verticalAlign=middle;whiteSpace=wrap;rounded=0;" vertex="1" parent="1">
          <mxGeometry x="406" y="195" width="44" height="20" as="geometry" />
        </mxCell>
        <mxCell id="NQ4KsFK5fOsxQA7J7TIk-38" value="" style="rounded=0;whiteSpace=wrap;html=1;" vertex="1" parent="1">
          <mxGeometry x="110" y="340" width="170" height="30" as="geometry" />
        </mxCell>
        <mxCell id="NQ4KsFK5fOsxQA7J7TIk-39" value="" style="endArrow=none;html=1;entryX=0.75;entryY=0;entryDx=0;entryDy=0;exitX=0.75;exitY=1;exitDx=0;exitDy=0;" edge="1" parent="1" source="NQ4KsFK5fOsxQA7J7TIk-38" target="NQ4KsFK5fOsxQA7J7TIk-38">
          <mxGeometry width="50" height="50" relative="1" as="geometry">
            <mxPoint x="180" y="420" as="sourcePoint" />
            <mxPoint x="180" y="390" as="targetPoint" />
          </mxGeometry>
        </mxCell>
        <mxCell id="NQ4KsFK5fOsxQA7J7TIk-40" value="" style="endArrow=none;html=1;entryX=0.75;entryY=0;entryDx=0;entryDy=0;exitX=0.75;exitY=1;exitDx=0;exitDy=0;" edge="1" parent="1">
          <mxGeometry width="50" height="50" relative="1" as="geometry">
            <mxPoint x="200" y="370" as="sourcePoint" />
            <mxPoint x="200" y="340" as="targetPoint" />
          </mxGeometry>
        </mxCell>
        <mxCell id="NQ4KsFK5fOsxQA7J7TIk-41" value="" style="endArrow=none;html=1;entryX=0.25;entryY=0;entryDx=0;entryDy=0;exitX=0.25;exitY=1;exitDx=0;exitDy=0;" edge="1" parent="1" source="NQ4KsFK5fOsxQA7J7TIk-38" target="NQ4KsFK5fOsxQA7J7TIk-38">
          <mxGeometry width="50" height="50" relative="1" as="geometry">
            <mxPoint x="210" y="380" as="sourcePoint" />
            <mxPoint x="210" y="350" as="targetPoint" />
          </mxGeometry>
        </mxCell>
        <mxCell id="NQ4KsFK5fOsxQA7J7TIk-42" value="" style="rounded=0;whiteSpace=wrap;html=1;" vertex="1" parent="1">
          <mxGeometry x="280" y="340" width="170" height="30" as="geometry" />
        </mxCell>
        <mxCell id="NQ4KsFK5fOsxQA7J7TIk-43" value="" style="endArrow=none;html=1;entryX=0.75;entryY=0;entryDx=0;entryDy=0;exitX=0.75;exitY=1;exitDx=0;exitDy=0;" edge="1" parent="1" source="NQ4KsFK5fOsxQA7J7TIk-42" target="NQ4KsFK5fOsxQA7J7TIk-42">
          <mxGeometry width="50" height="50" relative="1" as="geometry">
            <mxPoint x="190" y="430" as="sourcePoint" />
            <mxPoint x="190" y="400" as="targetPoint" />
          </mxGeometry>
        </mxCell>
        <mxCell id="NQ4KsFK5fOsxQA7J7TIk-44" value="" style="endArrow=none;html=1;entryX=0.5;entryY=0;entryDx=0;entryDy=0;exitX=0.5;exitY=1;exitDx=0;exitDy=0;" edge="1" parent="1" source="NQ4KsFK5fOsxQA7J7TIk-42" target="NQ4KsFK5fOsxQA7J7TIk-42">
          <mxGeometry width="50" height="50" relative="1" as="geometry">
            <mxPoint x="210" y="380" as="sourcePoint" />
            <mxPoint x="210" y="350" as="targetPoint" />
          </mxGeometry>
        </mxCell>
        <mxCell id="NQ4KsFK5fOsxQA7J7TIk-45" value="" style="endArrow=none;html=1;entryX=0.25;entryY=0;entryDx=0;entryDy=0;exitX=0.25;exitY=1;exitDx=0;exitDy=0;" edge="1" parent="1" source="NQ4KsFK5fOsxQA7J7TIk-42" target="NQ4KsFK5fOsxQA7J7TIk-42">
          <mxGeometry width="50" height="50" relative="1" as="geometry">
            <mxPoint x="220" y="390" as="sourcePoint" />
            <mxPoint x="220" y="360" as="targetPoint" />
          </mxGeometry>
        </mxCell>
        <mxCell id="NQ4KsFK5fOsxQA7J7TIk-46" value="" style="rounded=0;whiteSpace=wrap;html=1;" vertex="1" parent="1">
          <mxGeometry x="480" y="340" width="160" height="30" as="geometry" />
        </mxCell>
        <mxCell id="NQ4KsFK5fOsxQA7J7TIk-47" value="" style="endArrow=none;html=1;entryX=0.75;entryY=0;entryDx=0;entryDy=0;exitX=0.75;exitY=1;exitDx=0;exitDy=0;" edge="1" parent="1" source="NQ4KsFK5fOsxQA7J7TIk-46" target="NQ4KsFK5fOsxQA7J7TIk-46">
          <mxGeometry width="50" height="50" relative="1" as="geometry">
            <mxPoint x="390" y="430" as="sourcePoint" />
            <mxPoint x="390" y="400" as="targetPoint" />
          </mxGeometry>
        </mxCell>
        <mxCell id="NQ4KsFK5fOsxQA7J7TIk-48" value="" style="endArrow=none;html=1;entryX=0.5;entryY=0;entryDx=0;entryDy=0;exitX=0.5;exitY=1;exitDx=0;exitDy=0;" edge="1" parent="1" source="NQ4KsFK5fOsxQA7J7TIk-46" target="NQ4KsFK5fOsxQA7J7TIk-46">
          <mxGeometry width="50" height="50" relative="1" as="geometry">
            <mxPoint x="410" y="380" as="sourcePoint" />
            <mxPoint x="410" y="350" as="targetPoint" />
          </mxGeometry>
        </mxCell>
        <mxCell id="NQ4KsFK5fOsxQA7J7TIk-49" value="" style="endArrow=none;html=1;entryX=0.25;entryY=0;entryDx=0;entryDy=0;exitX=0.25;exitY=1;exitDx=0;exitDy=0;" edge="1" parent="1" source="NQ4KsFK5fOsxQA7J7TIk-46" target="NQ4KsFK5fOsxQA7J7TIk-46">
          <mxGeometry width="50" height="50" relative="1" as="geometry">
            <mxPoint x="420" y="390" as="sourcePoint" />
            <mxPoint x="420" y="360" as="targetPoint" />
          </mxGeometry>
        </mxCell>
        <mxCell id="NQ4KsFK5fOsxQA7J7TIk-50" value="1" style="text;html=1;strokeColor=none;fillColor=none;align=center;verticalAlign=middle;whiteSpace=wrap;rounded=0;" vertex="1" parent="1">
          <mxGeometry x="110" y="345" width="40" height="20" as="geometry" />
        </mxCell>
        <mxCell id="NQ4KsFK5fOsxQA7J7TIk-51" value="2" style="text;html=1;strokeColor=none;fillColor=none;align=center;verticalAlign=middle;whiteSpace=wrap;rounded=0;" vertex="1" parent="1">
          <mxGeometry x="160" y="345" width="40" height="20" as="geometry" />
        </mxCell>
        <mxCell id="NQ4KsFK5fOsxQA7J7TIk-52" value="3" style="text;html=1;strokeColor=none;fillColor=none;align=center;verticalAlign=middle;whiteSpace=wrap;rounded=0;" vertex="1" parent="1">
          <mxGeometry x="200" y="345" width="44" height="20" as="geometry" />
        </mxCell>
        <mxCell id="NQ4KsFK5fOsxQA7J7TIk-53" value="2" style="text;html=1;strokeColor=none;fillColor=none;align=center;verticalAlign=middle;whiteSpace=wrap;rounded=0;" vertex="1" parent="1">
          <mxGeometry x="480" y="345" width="40" height="20" as="geometry" />
        </mxCell>
        <mxCell id="NQ4KsFK5fOsxQA7J7TIk-54" value="5" style="text;html=1;strokeColor=none;fillColor=none;align=center;verticalAlign=middle;whiteSpace=wrap;rounded=0;" vertex="1" parent="1">
          <mxGeometry x="520" y="345" width="40" height="20" as="geometry" />
        </mxCell>
        <mxCell id="NQ4KsFK5fOsxQA7J7TIk-55" value="6" style="text;html=1;strokeColor=none;fillColor=none;align=center;verticalAlign=middle;whiteSpace=wrap;rounded=0;" vertex="1" parent="1">
          <mxGeometry x="560" y="346" width="40" height="20" as="geometry" />
        </mxCell>
        <mxCell id="NQ4KsFK5fOsxQA7J7TIk-56" value="0" style="text;html=1;strokeColor=none;fillColor=none;align=center;verticalAlign=middle;whiteSpace=wrap;rounded=0;" vertex="1" parent="1">
          <mxGeometry x="236" y="346" width="44" height="20" as="geometry" />
        </mxCell>
        <mxCell id="NQ4KsFK5fOsxQA7J7TIk-57" value="0" style="text;html=1;strokeColor=none;fillColor=none;align=center;verticalAlign=middle;whiteSpace=wrap;rounded=0;" vertex="1" parent="1">
          <mxGeometry x="280" y="346" width="44" height="20" as="geometry" />
        </mxCell>
        <mxCell id="NQ4KsFK5fOsxQA7J7TIk-58" value="m=3" style="text;html=1;strokeColor=none;fillColor=none;align=center;verticalAlign=middle;whiteSpace=wrap;rounded=0;" vertex="1" parent="1">
          <mxGeometry x="280" y="300" width="44" height="20" as="geometry" />
        </mxCell>
        <mxCell id="NQ4KsFK5fOsxQA7J7TIk-59" value="n=3" style="text;html=1;strokeColor=none;fillColor=none;align=center;verticalAlign=middle;whiteSpace=wrap;rounded=0;" vertex="1" parent="1">
          <mxGeometry x="520" y="300" width="44" height="20" as="geometry" />
        </mxCell>
        <mxCell id="NQ4KsFK5fOsxQA7J7TIk-60" value="" style="shape=flexArrow;endArrow=classic;html=1;width=8.8;endSize=3;" edge="1" parent="1">
          <mxGeometry width="50" height="50" relative="1" as="geometry">
            <mxPoint x="221.9999999999999" y="420" as="sourcePoint" />
            <mxPoint x="221.79999999999995" y="380" as="targetPoint" />
          </mxGeometry>
        </mxCell>
        <mxCell id="NQ4KsFK5fOsxQA7J7TIk-61" value="6" style="text;html=1;strokeColor=none;fillColor=none;align=center;verticalAlign=middle;whiteSpace=wrap;rounded=0;" vertex="1" parent="1">
          <mxGeometry x="320" y="345" width="44" height="20" as="geometry" />
        </mxCell>
        <mxCell id="NQ4KsFK5fOsxQA7J7TIk-62" value="0" style="text;html=1;strokeColor=none;fillColor=none;align=center;verticalAlign=middle;whiteSpace=wrap;rounded=0;" vertex="1" parent="1">
          <mxGeometry x="364" y="345" width="44" height="20" as="geometry" />
        </mxCell>
        <mxCell id="NQ4KsFK5fOsxQA7J7TIk-63" value="0" style="text;html=1;strokeColor=none;fillColor=none;align=center;verticalAlign=middle;whiteSpace=wrap;rounded=0;" vertex="1" parent="1">
          <mxGeometry x="406" y="345" width="44" height="20" as="geometry" />
        </mxCell>
        <mxCell id="NQ4KsFK5fOsxQA7J7TIk-64" value="" style="shape=flexArrow;endArrow=classic;html=1;width=10.344827586206897;endSize=4.868965517241379;" edge="1" parent="1">
          <mxGeometry width="50" height="50" relative="1" as="geometry">
            <mxPoint x="580.1999999999999" y="270" as="sourcePoint" />
            <mxPoint x="580" y="230" as="targetPoint" />
          </mxGeometry>
        </mxCell>
        <mxCell id="NQ4KsFK5fOsxQA7J7TIk-65" value="P1" style="text;html=1;strokeColor=none;fillColor=none;align=center;verticalAlign=middle;whiteSpace=wrap;rounded=0;" vertex="1" parent="1">
          <mxGeometry x="220" y="250" width="40" height="20" as="geometry" />
        </mxCell>
        <mxCell id="NQ4KsFK5fOsxQA7J7TIk-66" value="P2" style="text;html=1;strokeColor=none;fillColor=none;align=center;verticalAlign=middle;whiteSpace=wrap;rounded=0;rotation=0;" vertex="1" parent="1">
          <mxGeometry x="580" y="250" width="40" height="20" as="geometry" />
        </mxCell>
        <mxCell id="NQ4KsFK5fOsxQA7J7TIk-67" value="P1" style="text;html=1;strokeColor=none;fillColor=none;align=center;verticalAlign=middle;whiteSpace=wrap;rounded=0;" vertex="1" parent="1">
          <mxGeometry x="220" y="400" width="40" height="20" as="geometry" />
        </mxCell>
        <mxCell id="NQ4KsFK5fOsxQA7J7TIk-70" value="" style="shape=flexArrow;endArrow=classic;html=1;width=10.344827586206897;endSize=4.868965517241379;" edge="1" parent="1">
          <mxGeometry width="50" height="50" relative="1" as="geometry">
            <mxPoint x="540.1999999999998" y="420" as="sourcePoint" />
            <mxPoint x="540" y="380" as="targetPoint" />
          </mxGeometry>
        </mxCell>
        <mxCell id="NQ4KsFK5fOsxQA7J7TIk-71" value="P2" style="text;html=1;strokeColor=none;fillColor=none;align=center;verticalAlign=middle;whiteSpace=wrap;rounded=0;rotation=0;" vertex="1" parent="1">
          <mxGeometry x="540" y="400" width="40" height="20" as="geometry" />
        </mxCell>
        <mxCell id="NQ4KsFK5fOsxQA7J7TIk-72" value="第0步" style="text;html=1;strokeColor=none;fillColor=none;align=center;verticalAlign=middle;whiteSpace=wrap;rounded=0;" vertex="1" parent="1">
          <mxGeometry x="40" y="195" width="44" height="20" as="geometry" />
        </mxCell>
        <mxCell id="NQ4KsFK5fOsxQA7J7TIk-73" value="第1步" style="text;html=1;strokeColor=none;fillColor=none;align=center;verticalAlign=middle;whiteSpace=wrap;rounded=0;" vertex="1" parent="1">
          <mxGeometry x="40" y="346" width="44" height="20" as="geometry" />
        </mxCell>
        <mxCell id="NQ4KsFK5fOsxQA7J7TIk-75" value="&lt;font style=&quot;font-size: 18px&quot;&gt;1. 6&amp;gt;3 :&amp;nbsp; p2 =2&amp;nbsp; P=5&amp;nbsp; &amp;nbsp;p1 = 2&amp;nbsp; &amp;nbsp; nums1[p] = 6&amp;nbsp; &amp;nbsp;p--&amp;nbsp; &amp;nbsp;p2--&lt;br&gt;&lt;br&gt;&lt;/font&gt;" style="text;html=1;strokeColor=none;fillColor=none;align=left;verticalAlign=middle;whiteSpace=wrap;rounded=0;" vertex="1" parent="1">
          <mxGeometry x="710" y="170" width="530" height="90" as="geometry" />
        </mxCell>
        <mxCell id="NQ4KsFK5fOsxQA7J7TIk-77" value="" style="shape=flexArrow;endArrow=classic;html=1;width=8.8;endSize=3;" edge="1" parent="1">
          <mxGeometry width="50" height="50" relative="1" as="geometry">
            <mxPoint x="340" y="270" as="sourcePoint" />
            <mxPoint x="340" y="230" as="targetPoint" />
          </mxGeometry>
        </mxCell>
        <mxCell id="NQ4KsFK5fOsxQA7J7TIk-78" value="P" style="text;html=1;strokeColor=none;fillColor=none;align=center;verticalAlign=middle;whiteSpace=wrap;rounded=0;" vertex="1" parent="1">
          <mxGeometry x="340" y="250" width="40" height="20" as="geometry" />
        </mxCell>
        <mxCell id="NQ4KsFK5fOsxQA7J7TIk-79" value="" style="shape=flexArrow;endArrow=classic;html=1;width=8.8;endSize=3;" edge="1" parent="1">
          <mxGeometry width="50" height="50" relative="1" as="geometry">
            <mxPoint x="300" y="420" as="sourcePoint" />
            <mxPoint x="300" y="380" as="targetPoint" />
          </mxGeometry>
        </mxCell>
        <mxCell id="NQ4KsFK5fOsxQA7J7TIk-80" value="P" style="text;html=1;strokeColor=none;fillColor=none;align=center;verticalAlign=middle;whiteSpace=wrap;rounded=0;" vertex="1" parent="1">
          <mxGeometry x="300" y="400" width="40" height="20" as="geometry" />
        </mxCell>
        <mxCell id="NQ4KsFK5fOsxQA7J7TIk-81" value="" style="rounded=0;whiteSpace=wrap;html=1;" vertex="1" parent="1">
          <mxGeometry x="100" y="530" width="170" height="30" as="geometry" />
        </mxCell>
        <mxCell id="NQ4KsFK5fOsxQA7J7TIk-82" value="" style="endArrow=none;html=1;entryX=0.75;entryY=0;entryDx=0;entryDy=0;exitX=0.75;exitY=1;exitDx=0;exitDy=0;" edge="1" parent="1" source="NQ4KsFK5fOsxQA7J7TIk-81" target="NQ4KsFK5fOsxQA7J7TIk-81">
          <mxGeometry width="50" height="50" relative="1" as="geometry">
            <mxPoint x="170" y="610" as="sourcePoint" />
            <mxPoint x="170" y="580" as="targetPoint" />
          </mxGeometry>
        </mxCell>
        <mxCell id="NQ4KsFK5fOsxQA7J7TIk-83" value="" style="endArrow=none;html=1;entryX=0.75;entryY=0;entryDx=0;entryDy=0;exitX=0.75;exitY=1;exitDx=0;exitDy=0;" edge="1" parent="1">
          <mxGeometry width="50" height="50" relative="1" as="geometry">
            <mxPoint x="190" y="560" as="sourcePoint" />
            <mxPoint x="190" y="530" as="targetPoint" />
          </mxGeometry>
        </mxCell>
        <mxCell id="NQ4KsFK5fOsxQA7J7TIk-84" value="" style="endArrow=none;html=1;entryX=0.25;entryY=0;entryDx=0;entryDy=0;exitX=0.25;exitY=1;exitDx=0;exitDy=0;" edge="1" parent="1" source="NQ4KsFK5fOsxQA7J7TIk-81" target="NQ4KsFK5fOsxQA7J7TIk-81">
          <mxGeometry width="50" height="50" relative="1" as="geometry">
            <mxPoint x="200" y="570" as="sourcePoint" />
            <mxPoint x="200" y="540" as="targetPoint" />
          </mxGeometry>
        </mxCell>
        <mxCell id="NQ4KsFK5fOsxQA7J7TIk-85" value="" style="rounded=0;whiteSpace=wrap;html=1;" vertex="1" parent="1">
          <mxGeometry x="270" y="530" width="170" height="30" as="geometry" />
        </mxCell>
        <mxCell id="NQ4KsFK5fOsxQA7J7TIk-86" value="" style="endArrow=none;html=1;entryX=0.75;entryY=0;entryDx=0;entryDy=0;exitX=0.75;exitY=1;exitDx=0;exitDy=0;" edge="1" parent="1" source="NQ4KsFK5fOsxQA7J7TIk-85" target="NQ4KsFK5fOsxQA7J7TIk-85">
          <mxGeometry width="50" height="50" relative="1" as="geometry">
            <mxPoint x="180" y="620" as="sourcePoint" />
            <mxPoint x="180" y="590" as="targetPoint" />
          </mxGeometry>
        </mxCell>
        <mxCell id="NQ4KsFK5fOsxQA7J7TIk-87" value="" style="endArrow=none;html=1;entryX=0.5;entryY=0;entryDx=0;entryDy=0;exitX=0.5;exitY=1;exitDx=0;exitDy=0;" edge="1" parent="1" source="NQ4KsFK5fOsxQA7J7TIk-85" target="NQ4KsFK5fOsxQA7J7TIk-85">
          <mxGeometry width="50" height="50" relative="1" as="geometry">
            <mxPoint x="200" y="570" as="sourcePoint" />
            <mxPoint x="200" y="540" as="targetPoint" />
          </mxGeometry>
        </mxCell>
        <mxCell id="NQ4KsFK5fOsxQA7J7TIk-88" value="" style="endArrow=none;html=1;entryX=0.25;entryY=0;entryDx=0;entryDy=0;exitX=0.25;exitY=1;exitDx=0;exitDy=0;" edge="1" parent="1" source="NQ4KsFK5fOsxQA7J7TIk-85" target="NQ4KsFK5fOsxQA7J7TIk-85">
          <mxGeometry width="50" height="50" relative="1" as="geometry">
            <mxPoint x="210" y="580" as="sourcePoint" />
            <mxPoint x="210" y="550" as="targetPoint" />
          </mxGeometry>
        </mxCell>
        <mxCell id="NQ4KsFK5fOsxQA7J7TIk-89" value="" style="rounded=0;whiteSpace=wrap;html=1;" vertex="1" parent="1">
          <mxGeometry x="470" y="530" width="160" height="30" as="geometry" />
        </mxCell>
        <mxCell id="NQ4KsFK5fOsxQA7J7TIk-90" value="" style="endArrow=none;html=1;entryX=0.75;entryY=0;entryDx=0;entryDy=0;exitX=0.75;exitY=1;exitDx=0;exitDy=0;" edge="1" parent="1" source="NQ4KsFK5fOsxQA7J7TIk-89" target="NQ4KsFK5fOsxQA7J7TIk-89">
          <mxGeometry width="50" height="50" relative="1" as="geometry">
            <mxPoint x="380" y="620" as="sourcePoint" />
            <mxPoint x="380" y="590" as="targetPoint" />
          </mxGeometry>
        </mxCell>
        <mxCell id="NQ4KsFK5fOsxQA7J7TIk-91" value="" style="endArrow=none;html=1;entryX=0.5;entryY=0;entryDx=0;entryDy=0;exitX=0.5;exitY=1;exitDx=0;exitDy=0;" edge="1" parent="1" source="NQ4KsFK5fOsxQA7J7TIk-89" target="NQ4KsFK5fOsxQA7J7TIk-89">
          <mxGeometry width="50" height="50" relative="1" as="geometry">
            <mxPoint x="400" y="570" as="sourcePoint" />
            <mxPoint x="400" y="540" as="targetPoint" />
          </mxGeometry>
        </mxCell>
        <mxCell id="NQ4KsFK5fOsxQA7J7TIk-92" value="" style="endArrow=none;html=1;entryX=0.25;entryY=0;entryDx=0;entryDy=0;exitX=0.25;exitY=1;exitDx=0;exitDy=0;" edge="1" parent="1" source="NQ4KsFK5fOsxQA7J7TIk-89" target="NQ4KsFK5fOsxQA7J7TIk-89">
          <mxGeometry width="50" height="50" relative="1" as="geometry">
            <mxPoint x="410" y="580" as="sourcePoint" />
            <mxPoint x="410" y="550" as="targetPoint" />
          </mxGeometry>
        </mxCell>
        <mxCell id="NQ4KsFK5fOsxQA7J7TIk-93" value="1" style="text;html=1;strokeColor=none;fillColor=none;align=center;verticalAlign=middle;whiteSpace=wrap;rounded=0;" vertex="1" parent="1">
          <mxGeometry x="100" y="535" width="40" height="20" as="geometry" />
        </mxCell>
        <mxCell id="NQ4KsFK5fOsxQA7J7TIk-94" value="2" style="text;html=1;strokeColor=none;fillColor=none;align=center;verticalAlign=middle;whiteSpace=wrap;rounded=0;" vertex="1" parent="1">
          <mxGeometry x="150" y="535" width="40" height="20" as="geometry" />
        </mxCell>
        <mxCell id="NQ4KsFK5fOsxQA7J7TIk-95" value="3" style="text;html=1;strokeColor=none;fillColor=none;align=center;verticalAlign=middle;whiteSpace=wrap;rounded=0;" vertex="1" parent="1">
          <mxGeometry x="190" y="535" width="44" height="20" as="geometry" />
        </mxCell>
        <mxCell id="NQ4KsFK5fOsxQA7J7TIk-96" value="2" style="text;html=1;strokeColor=none;fillColor=none;align=center;verticalAlign=middle;whiteSpace=wrap;rounded=0;" vertex="1" parent="1">
          <mxGeometry x="470" y="535" width="40" height="20" as="geometry" />
        </mxCell>
        <mxCell id="NQ4KsFK5fOsxQA7J7TIk-97" value="5" style="text;html=1;strokeColor=none;fillColor=none;align=center;verticalAlign=middle;whiteSpace=wrap;rounded=0;" vertex="1" parent="1">
          <mxGeometry x="510" y="535" width="40" height="20" as="geometry" />
        </mxCell>
        <mxCell id="NQ4KsFK5fOsxQA7J7TIk-98" value="6" style="text;html=1;strokeColor=none;fillColor=none;align=center;verticalAlign=middle;whiteSpace=wrap;rounded=0;" vertex="1" parent="1">
          <mxGeometry x="550" y="536" width="40" height="20" as="geometry" />
        </mxCell>
        <mxCell id="NQ4KsFK5fOsxQA7J7TIk-99" value="0" style="text;html=1;strokeColor=none;fillColor=none;align=center;verticalAlign=middle;whiteSpace=wrap;rounded=0;" vertex="1" parent="1">
          <mxGeometry x="226" y="536" width="44" height="20" as="geometry" />
        </mxCell>
        <mxCell id="NQ4KsFK5fOsxQA7J7TIk-100" value="5" style="text;html=1;strokeColor=none;fillColor=none;align=center;verticalAlign=middle;whiteSpace=wrap;rounded=0;" vertex="1" parent="1">
          <mxGeometry x="270" y="536" width="44" height="20" as="geometry" />
        </mxCell>
        <mxCell id="NQ4KsFK5fOsxQA7J7TIk-101" value="m=3" style="text;html=1;strokeColor=none;fillColor=none;align=center;verticalAlign=middle;whiteSpace=wrap;rounded=0;" vertex="1" parent="1">
          <mxGeometry x="270" y="490" width="44" height="20" as="geometry" />
        </mxCell>
        <mxCell id="NQ4KsFK5fOsxQA7J7TIk-102" value="n=3" style="text;html=1;strokeColor=none;fillColor=none;align=center;verticalAlign=middle;whiteSpace=wrap;rounded=0;" vertex="1" parent="1">
          <mxGeometry x="510" y="490" width="44" height="20" as="geometry" />
        </mxCell>
        <mxCell id="NQ4KsFK5fOsxQA7J7TIk-103" value="" style="shape=flexArrow;endArrow=classic;html=1;width=8.8;endSize=3;" edge="1" parent="1">
          <mxGeometry width="50" height="50" relative="1" as="geometry">
            <mxPoint x="212" y="610" as="sourcePoint" />
            <mxPoint x="211.79999999999995" y="570" as="targetPoint" />
          </mxGeometry>
        </mxCell>
        <mxCell id="NQ4KsFK5fOsxQA7J7TIk-104" value="6" style="text;html=1;strokeColor=none;fillColor=none;align=center;verticalAlign=middle;whiteSpace=wrap;rounded=0;" vertex="1" parent="1">
          <mxGeometry x="310" y="535" width="44" height="20" as="geometry" />
        </mxCell>
        <mxCell id="NQ4KsFK5fOsxQA7J7TIk-105" value="0" style="text;html=1;strokeColor=none;fillColor=none;align=center;verticalAlign=middle;whiteSpace=wrap;rounded=0;" vertex="1" parent="1">
          <mxGeometry x="354" y="535" width="44" height="20" as="geometry" />
        </mxCell>
        <mxCell id="NQ4KsFK5fOsxQA7J7TIk-106" value="0" style="text;html=1;strokeColor=none;fillColor=none;align=center;verticalAlign=middle;whiteSpace=wrap;rounded=0;" vertex="1" parent="1">
          <mxGeometry x="396" y="535" width="44" height="20" as="geometry" />
        </mxCell>
        <mxCell id="NQ4KsFK5fOsxQA7J7TIk-107" value="P1" style="text;html=1;strokeColor=none;fillColor=none;align=center;verticalAlign=middle;whiteSpace=wrap;rounded=0;" vertex="1" parent="1">
          <mxGeometry x="210" y="590" width="40" height="20" as="geometry" />
        </mxCell>
        <mxCell id="NQ4KsFK5fOsxQA7J7TIk-108" value="" style="shape=flexArrow;endArrow=classic;html=1;width=10.344827586206897;endSize=4.868965517241379;" edge="1" parent="1">
          <mxGeometry width="50" height="50" relative="1" as="geometry">
            <mxPoint x="490.1999999999998" y="610" as="sourcePoint" />
            <mxPoint x="490" y="570" as="targetPoint" />
          </mxGeometry>
        </mxCell>
        <mxCell id="NQ4KsFK5fOsxQA7J7TIk-109" value="P2" style="text;html=1;strokeColor=none;fillColor=none;align=center;verticalAlign=middle;whiteSpace=wrap;rounded=0;rotation=0;" vertex="1" parent="1">
          <mxGeometry x="490" y="590" width="40" height="20" as="geometry" />
        </mxCell>
        <mxCell id="NQ4KsFK5fOsxQA7J7TIk-110" value="第2步" style="text;html=1;strokeColor=none;fillColor=none;align=center;verticalAlign=middle;whiteSpace=wrap;rounded=0;" vertex="1" parent="1">
          <mxGeometry x="30" y="536" width="44" height="20" as="geometry" />
        </mxCell>
        <mxCell id="NQ4KsFK5fOsxQA7J7TIk-111" value="" style="shape=flexArrow;endArrow=classic;html=1;width=8.8;endSize=3;" edge="1" parent="1">
          <mxGeometry width="50" height="50" relative="1" as="geometry">
            <mxPoint x="250" y="610" as="sourcePoint" />
            <mxPoint x="250" y="570" as="targetPoint" />
            <Array as="points">
              <mxPoint x="250" y="600" />
            </Array>
          </mxGeometry>
        </mxCell>
        <mxCell id="NQ4KsFK5fOsxQA7J7TIk-112" value="P" style="text;html=1;strokeColor=none;fillColor=none;align=center;verticalAlign=middle;whiteSpace=wrap;rounded=0;" vertex="1" parent="1">
          <mxGeometry x="250" y="590" width="40" height="20" as="geometry" />
        </mxCell>
        <mxCell id="NQ4KsFK5fOsxQA7J7TIk-145" value="" style="rounded=0;whiteSpace=wrap;html=1;" vertex="1" parent="1">
          <mxGeometry x="100" y="720" width="170" height="30" as="geometry" />
        </mxCell>
        <mxCell id="NQ4KsFK5fOsxQA7J7TIk-146" value="" style="endArrow=none;html=1;entryX=0.75;entryY=0;entryDx=0;entryDy=0;exitX=0.75;exitY=1;exitDx=0;exitDy=0;" edge="1" parent="1" source="NQ4KsFK5fOsxQA7J7TIk-145" target="NQ4KsFK5fOsxQA7J7TIk-145">
          <mxGeometry width="50" height="50" relative="1" as="geometry">
            <mxPoint x="170" y="800" as="sourcePoint" />
            <mxPoint x="170" y="770" as="targetPoint" />
          </mxGeometry>
        </mxCell>
        <mxCell id="NQ4KsFK5fOsxQA7J7TIk-147" value="" style="endArrow=none;html=1;entryX=0.75;entryY=0;entryDx=0;entryDy=0;exitX=0.75;exitY=1;exitDx=0;exitDy=0;" edge="1" parent="1">
          <mxGeometry width="50" height="50" relative="1" as="geometry">
            <mxPoint x="190" y="750" as="sourcePoint" />
            <mxPoint x="190" y="720" as="targetPoint" />
          </mxGeometry>
        </mxCell>
        <mxCell id="NQ4KsFK5fOsxQA7J7TIk-148" value="" style="endArrow=none;html=1;entryX=0.25;entryY=0;entryDx=0;entryDy=0;exitX=0.25;exitY=1;exitDx=0;exitDy=0;" edge="1" parent="1" source="NQ4KsFK5fOsxQA7J7TIk-145" target="NQ4KsFK5fOsxQA7J7TIk-145">
          <mxGeometry width="50" height="50" relative="1" as="geometry">
            <mxPoint x="200" y="760" as="sourcePoint" />
            <mxPoint x="200" y="730" as="targetPoint" />
          </mxGeometry>
        </mxCell>
        <mxCell id="NQ4KsFK5fOsxQA7J7TIk-149" value="" style="rounded=0;whiteSpace=wrap;html=1;" vertex="1" parent="1">
          <mxGeometry x="270" y="720" width="170" height="30" as="geometry" />
        </mxCell>
        <mxCell id="NQ4KsFK5fOsxQA7J7TIk-150" value="" style="endArrow=none;html=1;entryX=0.75;entryY=0;entryDx=0;entryDy=0;exitX=0.75;exitY=1;exitDx=0;exitDy=0;" edge="1" parent="1" source="NQ4KsFK5fOsxQA7J7TIk-149" target="NQ4KsFK5fOsxQA7J7TIk-149">
          <mxGeometry width="50" height="50" relative="1" as="geometry">
            <mxPoint x="180" y="810" as="sourcePoint" />
            <mxPoint x="180" y="780" as="targetPoint" />
          </mxGeometry>
        </mxCell>
        <mxCell id="NQ4KsFK5fOsxQA7J7TIk-151" value="" style="endArrow=none;html=1;entryX=0.5;entryY=0;entryDx=0;entryDy=0;exitX=0.5;exitY=1;exitDx=0;exitDy=0;" edge="1" parent="1" source="NQ4KsFK5fOsxQA7J7TIk-149" target="NQ4KsFK5fOsxQA7J7TIk-149">
          <mxGeometry width="50" height="50" relative="1" as="geometry">
            <mxPoint x="200" y="760" as="sourcePoint" />
            <mxPoint x="200" y="730" as="targetPoint" />
          </mxGeometry>
        </mxCell>
        <mxCell id="NQ4KsFK5fOsxQA7J7TIk-152" value="" style="endArrow=none;html=1;entryX=0.25;entryY=0;entryDx=0;entryDy=0;exitX=0.25;exitY=1;exitDx=0;exitDy=0;" edge="1" parent="1" source="NQ4KsFK5fOsxQA7J7TIk-149" target="NQ4KsFK5fOsxQA7J7TIk-149">
          <mxGeometry width="50" height="50" relative="1" as="geometry">
            <mxPoint x="210" y="770" as="sourcePoint" />
            <mxPoint x="210" y="740" as="targetPoint" />
          </mxGeometry>
        </mxCell>
        <mxCell id="NQ4KsFK5fOsxQA7J7TIk-153" value="" style="rounded=0;whiteSpace=wrap;html=1;" vertex="1" parent="1">
          <mxGeometry x="470" y="720" width="160" height="30" as="geometry" />
        </mxCell>
        <mxCell id="NQ4KsFK5fOsxQA7J7TIk-154" value="" style="endArrow=none;html=1;entryX=0.75;entryY=0;entryDx=0;entryDy=0;exitX=0.75;exitY=1;exitDx=0;exitDy=0;" edge="1" parent="1" source="NQ4KsFK5fOsxQA7J7TIk-153" target="NQ4KsFK5fOsxQA7J7TIk-153">
          <mxGeometry width="50" height="50" relative="1" as="geometry">
            <mxPoint x="380" y="810" as="sourcePoint" />
            <mxPoint x="380" y="780" as="targetPoint" />
          </mxGeometry>
        </mxCell>
        <mxCell id="NQ4KsFK5fOsxQA7J7TIk-155" value="" style="endArrow=none;html=1;entryX=0.5;entryY=0;entryDx=0;entryDy=0;exitX=0.5;exitY=1;exitDx=0;exitDy=0;" edge="1" parent="1" source="NQ4KsFK5fOsxQA7J7TIk-153" target="NQ4KsFK5fOsxQA7J7TIk-153">
          <mxGeometry width="50" height="50" relative="1" as="geometry">
            <mxPoint x="400" y="760" as="sourcePoint" />
            <mxPoint x="400" y="730" as="targetPoint" />
          </mxGeometry>
        </mxCell>
        <mxCell id="NQ4KsFK5fOsxQA7J7TIk-156" value="" style="endArrow=none;html=1;entryX=0.25;entryY=0;entryDx=0;entryDy=0;exitX=0.25;exitY=1;exitDx=0;exitDy=0;" edge="1" parent="1" source="NQ4KsFK5fOsxQA7J7TIk-153" target="NQ4KsFK5fOsxQA7J7TIk-153">
          <mxGeometry width="50" height="50" relative="1" as="geometry">
            <mxPoint x="410" y="770" as="sourcePoint" />
            <mxPoint x="410" y="740" as="targetPoint" />
          </mxGeometry>
        </mxCell>
        <mxCell id="NQ4KsFK5fOsxQA7J7TIk-157" value="1" style="text;html=1;strokeColor=none;fillColor=none;align=center;verticalAlign=middle;whiteSpace=wrap;rounded=0;" vertex="1" parent="1">
          <mxGeometry x="100" y="725" width="40" height="20" as="geometry" />
        </mxCell>
        <mxCell id="NQ4KsFK5fOsxQA7J7TIk-158" value="2" style="text;html=1;strokeColor=none;fillColor=none;align=center;verticalAlign=middle;whiteSpace=wrap;rounded=0;" vertex="1" parent="1">
          <mxGeometry x="150" y="725" width="40" height="20" as="geometry" />
        </mxCell>
        <mxCell id="NQ4KsFK5fOsxQA7J7TIk-159" value="3" style="text;html=1;strokeColor=none;fillColor=none;align=center;verticalAlign=middle;whiteSpace=wrap;rounded=0;" vertex="1" parent="1">
          <mxGeometry x="190" y="725" width="44" height="20" as="geometry" />
        </mxCell>
        <mxCell id="NQ4KsFK5fOsxQA7J7TIk-160" value="2" style="text;html=1;strokeColor=none;fillColor=none;align=center;verticalAlign=middle;whiteSpace=wrap;rounded=0;" vertex="1" parent="1">
          <mxGeometry x="470" y="725" width="40" height="20" as="geometry" />
        </mxCell>
        <mxCell id="NQ4KsFK5fOsxQA7J7TIk-161" value="5" style="text;html=1;strokeColor=none;fillColor=none;align=center;verticalAlign=middle;whiteSpace=wrap;rounded=0;" vertex="1" parent="1">
          <mxGeometry x="510" y="725" width="40" height="20" as="geometry" />
        </mxCell>
        <mxCell id="NQ4KsFK5fOsxQA7J7TIk-162" value="6" style="text;html=1;strokeColor=none;fillColor=none;align=center;verticalAlign=middle;whiteSpace=wrap;rounded=0;" vertex="1" parent="1">
          <mxGeometry x="550" y="726" width="40" height="20" as="geometry" />
        </mxCell>
        <mxCell id="NQ4KsFK5fOsxQA7J7TIk-163" value="3" style="text;html=1;strokeColor=none;fillColor=none;align=center;verticalAlign=middle;whiteSpace=wrap;rounded=0;" vertex="1" parent="1">
          <mxGeometry x="226" y="726" width="44" height="20" as="geometry" />
        </mxCell>
        <mxCell id="NQ4KsFK5fOsxQA7J7TIk-164" value="5" style="text;html=1;strokeColor=none;fillColor=none;align=center;verticalAlign=middle;whiteSpace=wrap;rounded=0;" vertex="1" parent="1">
          <mxGeometry x="270" y="726" width="44" height="20" as="geometry" />
        </mxCell>
        <mxCell id="NQ4KsFK5fOsxQA7J7TIk-165" value="m=3" style="text;html=1;strokeColor=none;fillColor=none;align=center;verticalAlign=middle;whiteSpace=wrap;rounded=0;" vertex="1" parent="1">
          <mxGeometry x="270" y="680" width="44" height="20" as="geometry" />
        </mxCell>
        <mxCell id="NQ4KsFK5fOsxQA7J7TIk-166" value="n=3" style="text;html=1;strokeColor=none;fillColor=none;align=center;verticalAlign=middle;whiteSpace=wrap;rounded=0;" vertex="1" parent="1">
          <mxGeometry x="510" y="680" width="44" height="20" as="geometry" />
        </mxCell>
        <mxCell id="NQ4KsFK5fOsxQA7J7TIk-167" value="" style="shape=flexArrow;endArrow=classic;html=1;width=8.8;endSize=3;" edge="1" parent="1">
          <mxGeometry width="50" height="50" relative="1" as="geometry">
            <mxPoint x="166" y="800" as="sourcePoint" />
            <mxPoint x="165.79999999999995" y="760" as="targetPoint" />
          </mxGeometry>
        </mxCell>
        <mxCell id="NQ4KsFK5fOsxQA7J7TIk-168" value="6" style="text;html=1;strokeColor=none;fillColor=none;align=center;verticalAlign=middle;whiteSpace=wrap;rounded=0;" vertex="1" parent="1">
          <mxGeometry x="310" y="725" width="44" height="20" as="geometry" />
        </mxCell>
        <mxCell id="NQ4KsFK5fOsxQA7J7TIk-169" value="0" style="text;html=1;strokeColor=none;fillColor=none;align=center;verticalAlign=middle;whiteSpace=wrap;rounded=0;" vertex="1" parent="1">
          <mxGeometry x="354" y="725" width="44" height="20" as="geometry" />
        </mxCell>
        <mxCell id="NQ4KsFK5fOsxQA7J7TIk-170" value="0" style="text;html=1;strokeColor=none;fillColor=none;align=center;verticalAlign=middle;whiteSpace=wrap;rounded=0;" vertex="1" parent="1">
          <mxGeometry x="396" y="725" width="44" height="20" as="geometry" />
        </mxCell>
        <mxCell id="NQ4KsFK5fOsxQA7J7TIk-171" value="P1" style="text;html=1;strokeColor=none;fillColor=none;align=center;verticalAlign=middle;whiteSpace=wrap;rounded=0;" vertex="1" parent="1">
          <mxGeometry x="164" y="780" width="40" height="20" as="geometry" />
        </mxCell>
        <mxCell id="NQ4KsFK5fOsxQA7J7TIk-172" value="" style="shape=flexArrow;endArrow=classic;html=1;width=10.344827586206897;endSize=4.868965517241379;" edge="1" parent="1">
          <mxGeometry width="50" height="50" relative="1" as="geometry">
            <mxPoint x="490.1999999999998" y="800" as="sourcePoint" />
            <mxPoint x="490" y="760" as="targetPoint" />
          </mxGeometry>
        </mxCell>
        <mxCell id="NQ4KsFK5fOsxQA7J7TIk-173" value="P2" style="text;html=1;strokeColor=none;fillColor=none;align=center;verticalAlign=middle;whiteSpace=wrap;rounded=0;rotation=0;" vertex="1" parent="1">
          <mxGeometry x="490" y="780" width="40" height="20" as="geometry" />
        </mxCell>
        <mxCell id="NQ4KsFK5fOsxQA7J7TIk-174" value="第3步" style="text;html=1;strokeColor=none;fillColor=none;align=center;verticalAlign=middle;whiteSpace=wrap;rounded=0;" vertex="1" parent="1">
          <mxGeometry x="30" y="726" width="44" height="20" as="geometry" />
        </mxCell>
        <mxCell id="NQ4KsFK5fOsxQA7J7TIk-175" value="" style="shape=flexArrow;endArrow=classic;html=1;width=8.8;endSize=3;" edge="1" parent="1">
          <mxGeometry width="50" height="50" relative="1" as="geometry">
            <mxPoint x="204" y="800" as="sourcePoint" />
            <mxPoint x="204" y="760" as="targetPoint" />
            <Array as="points">
              <mxPoint x="204" y="790" />
            </Array>
          </mxGeometry>
        </mxCell>
        <mxCell id="NQ4KsFK5fOsxQA7J7TIk-176" value="P" style="text;html=1;strokeColor=none;fillColor=none;align=center;verticalAlign=middle;whiteSpace=wrap;rounded=0;" vertex="1" parent="1">
          <mxGeometry x="204" y="780" width="40" height="20" as="geometry" />
        </mxCell>
        <mxCell id="NQ4KsFK5fOsxQA7J7TIk-177" value="" style="rounded=0;whiteSpace=wrap;html=1;" vertex="1" parent="1">
          <mxGeometry x="100" y="900" width="170" height="30" as="geometry" />
        </mxCell>
        <mxCell id="NQ4KsFK5fOsxQA7J7TIk-178" value="" style="endArrow=none;html=1;entryX=0.75;entryY=0;entryDx=0;entryDy=0;exitX=0.75;exitY=1;exitDx=0;exitDy=0;" edge="1" parent="1" source="NQ4KsFK5fOsxQA7J7TIk-177" target="NQ4KsFK5fOsxQA7J7TIk-177">
          <mxGeometry width="50" height="50" relative="1" as="geometry">
            <mxPoint x="170" y="980" as="sourcePoint" />
            <mxPoint x="170" y="950" as="targetPoint" />
          </mxGeometry>
        </mxCell>
        <mxCell id="NQ4KsFK5fOsxQA7J7TIk-179" value="" style="endArrow=none;html=1;entryX=0.75;entryY=0;entryDx=0;entryDy=0;exitX=0.75;exitY=1;exitDx=0;exitDy=0;" edge="1" parent="1">
          <mxGeometry width="50" height="50" relative="1" as="geometry">
            <mxPoint x="190" y="930" as="sourcePoint" />
            <mxPoint x="190" y="900" as="targetPoint" />
          </mxGeometry>
        </mxCell>
        <mxCell id="NQ4KsFK5fOsxQA7J7TIk-180" value="" style="endArrow=none;html=1;entryX=0.25;entryY=0;entryDx=0;entryDy=0;exitX=0.25;exitY=1;exitDx=0;exitDy=0;" edge="1" parent="1" source="NQ4KsFK5fOsxQA7J7TIk-177" target="NQ4KsFK5fOsxQA7J7TIk-177">
          <mxGeometry width="50" height="50" relative="1" as="geometry">
            <mxPoint x="200" y="940" as="sourcePoint" />
            <mxPoint x="200" y="910" as="targetPoint" />
          </mxGeometry>
        </mxCell>
        <mxCell id="NQ4KsFK5fOsxQA7J7TIk-181" value="" style="rounded=0;whiteSpace=wrap;html=1;" vertex="1" parent="1">
          <mxGeometry x="270" y="900" width="170" height="30" as="geometry" />
        </mxCell>
        <mxCell id="NQ4KsFK5fOsxQA7J7TIk-182" value="" style="endArrow=none;html=1;entryX=0.75;entryY=0;entryDx=0;entryDy=0;exitX=0.75;exitY=1;exitDx=0;exitDy=0;" edge="1" parent="1" source="NQ4KsFK5fOsxQA7J7TIk-181" target="NQ4KsFK5fOsxQA7J7TIk-181">
          <mxGeometry width="50" height="50" relative="1" as="geometry">
            <mxPoint x="180" y="990" as="sourcePoint" />
            <mxPoint x="180" y="960" as="targetPoint" />
          </mxGeometry>
        </mxCell>
        <mxCell id="NQ4KsFK5fOsxQA7J7TIk-183" value="" style="endArrow=none;html=1;entryX=0.5;entryY=0;entryDx=0;entryDy=0;exitX=0.5;exitY=1;exitDx=0;exitDy=0;" edge="1" parent="1" source="NQ4KsFK5fOsxQA7J7TIk-181" target="NQ4KsFK5fOsxQA7J7TIk-181">
          <mxGeometry width="50" height="50" relative="1" as="geometry">
            <mxPoint x="200" y="940" as="sourcePoint" />
            <mxPoint x="200" y="910" as="targetPoint" />
          </mxGeometry>
        </mxCell>
        <mxCell id="NQ4KsFK5fOsxQA7J7TIk-184" value="" style="endArrow=none;html=1;entryX=0.25;entryY=0;entryDx=0;entryDy=0;exitX=0.25;exitY=1;exitDx=0;exitDy=0;" edge="1" parent="1" source="NQ4KsFK5fOsxQA7J7TIk-181" target="NQ4KsFK5fOsxQA7J7TIk-181">
          <mxGeometry width="50" height="50" relative="1" as="geometry">
            <mxPoint x="210" y="950" as="sourcePoint" />
            <mxPoint x="210" y="920" as="targetPoint" />
          </mxGeometry>
        </mxCell>
        <mxCell id="NQ4KsFK5fOsxQA7J7TIk-185" value="" style="rounded=0;whiteSpace=wrap;html=1;" vertex="1" parent="1">
          <mxGeometry x="510" y="900" width="160" height="30" as="geometry" />
        </mxCell>
        <mxCell id="NQ4KsFK5fOsxQA7J7TIk-186" value="" style="endArrow=none;html=1;entryX=0.75;entryY=0;entryDx=0;entryDy=0;exitX=0.75;exitY=1;exitDx=0;exitDy=0;" edge="1" parent="1" source="NQ4KsFK5fOsxQA7J7TIk-185" target="NQ4KsFK5fOsxQA7J7TIk-185">
          <mxGeometry width="50" height="50" relative="1" as="geometry">
            <mxPoint x="420" y="990" as="sourcePoint" />
            <mxPoint x="420" y="960" as="targetPoint" />
          </mxGeometry>
        </mxCell>
        <mxCell id="NQ4KsFK5fOsxQA7J7TIk-187" value="" style="endArrow=none;html=1;entryX=0.5;entryY=0;entryDx=0;entryDy=0;exitX=0.5;exitY=1;exitDx=0;exitDy=0;" edge="1" parent="1" source="NQ4KsFK5fOsxQA7J7TIk-185" target="NQ4KsFK5fOsxQA7J7TIk-185">
          <mxGeometry width="50" height="50" relative="1" as="geometry">
            <mxPoint x="440" y="940" as="sourcePoint" />
            <mxPoint x="440" y="910" as="targetPoint" />
          </mxGeometry>
        </mxCell>
        <mxCell id="NQ4KsFK5fOsxQA7J7TIk-188" value="" style="endArrow=none;html=1;entryX=0.25;entryY=0;entryDx=0;entryDy=0;exitX=0.25;exitY=1;exitDx=0;exitDy=0;" edge="1" parent="1" source="NQ4KsFK5fOsxQA7J7TIk-185" target="NQ4KsFK5fOsxQA7J7TIk-185">
          <mxGeometry width="50" height="50" relative="1" as="geometry">
            <mxPoint x="450" y="950" as="sourcePoint" />
            <mxPoint x="450" y="920" as="targetPoint" />
          </mxGeometry>
        </mxCell>
        <mxCell id="NQ4KsFK5fOsxQA7J7TIk-189" value="1" style="text;html=1;strokeColor=none;fillColor=none;align=center;verticalAlign=middle;whiteSpace=wrap;rounded=0;" vertex="1" parent="1">
          <mxGeometry x="100" y="905" width="40" height="20" as="geometry" />
        </mxCell>
        <mxCell id="NQ4KsFK5fOsxQA7J7TIk-190" value="2" style="text;html=1;strokeColor=none;fillColor=none;align=center;verticalAlign=middle;whiteSpace=wrap;rounded=0;" vertex="1" parent="1">
          <mxGeometry x="150" y="905" width="40" height="20" as="geometry" />
        </mxCell>
        <mxCell id="NQ4KsFK5fOsxQA7J7TIk-191" value="2" style="text;html=1;strokeColor=none;fillColor=none;align=center;verticalAlign=middle;whiteSpace=wrap;rounded=0;" vertex="1" parent="1">
          <mxGeometry x="190" y="905" width="44" height="20" as="geometry" />
        </mxCell>
        <mxCell id="NQ4KsFK5fOsxQA7J7TIk-192" value="2" style="text;html=1;strokeColor=none;fillColor=none;align=center;verticalAlign=middle;whiteSpace=wrap;rounded=0;" vertex="1" parent="1">
          <mxGeometry x="510" y="905" width="40" height="20" as="geometry" />
        </mxCell>
        <mxCell id="NQ4KsFK5fOsxQA7J7TIk-193" value="5" style="text;html=1;strokeColor=none;fillColor=none;align=center;verticalAlign=middle;whiteSpace=wrap;rounded=0;" vertex="1" parent="1">
          <mxGeometry x="550" y="905" width="40" height="20" as="geometry" />
        </mxCell>
        <mxCell id="NQ4KsFK5fOsxQA7J7TIk-194" value="6" style="text;html=1;strokeColor=none;fillColor=none;align=center;verticalAlign=middle;whiteSpace=wrap;rounded=0;" vertex="1" parent="1">
          <mxGeometry x="590" y="906" width="40" height="20" as="geometry" />
        </mxCell>
        <mxCell id="NQ4KsFK5fOsxQA7J7TIk-195" value="3" style="text;html=1;strokeColor=none;fillColor=none;align=center;verticalAlign=middle;whiteSpace=wrap;rounded=0;" vertex="1" parent="1">
          <mxGeometry x="226" y="906" width="44" height="20" as="geometry" />
        </mxCell>
        <mxCell id="NQ4KsFK5fOsxQA7J7TIk-196" value="5" style="text;html=1;strokeColor=none;fillColor=none;align=center;verticalAlign=middle;whiteSpace=wrap;rounded=0;" vertex="1" parent="1">
          <mxGeometry x="270" y="906" width="44" height="20" as="geometry" />
        </mxCell>
        <mxCell id="NQ4KsFK5fOsxQA7J7TIk-197" value="m=3" style="text;html=1;strokeColor=none;fillColor=none;align=center;verticalAlign=middle;whiteSpace=wrap;rounded=0;" vertex="1" parent="1">
          <mxGeometry x="270" y="860" width="44" height="20" as="geometry" />
        </mxCell>
        <mxCell id="NQ4KsFK5fOsxQA7J7TIk-198" value="n=3" style="text;html=1;strokeColor=none;fillColor=none;align=center;verticalAlign=middle;whiteSpace=wrap;rounded=0;" vertex="1" parent="1">
          <mxGeometry x="550" y="860" width="44" height="20" as="geometry" />
        </mxCell>
        <mxCell id="NQ4KsFK5fOsxQA7J7TIk-199" value="" style="shape=flexArrow;endArrow=classic;html=1;width=8.8;endSize=3;" edge="1" parent="1">
          <mxGeometry width="50" height="50" relative="1" as="geometry">
            <mxPoint x="166" y="980" as="sourcePoint" />
            <mxPoint x="165.79999999999995" y="940" as="targetPoint" />
          </mxGeometry>
        </mxCell>
        <mxCell id="NQ4KsFK5fOsxQA7J7TIk-200" value="6" style="text;html=1;strokeColor=none;fillColor=none;align=center;verticalAlign=middle;whiteSpace=wrap;rounded=0;" vertex="1" parent="1">
          <mxGeometry x="310" y="905" width="44" height="20" as="geometry" />
        </mxCell>
        <mxCell id="NQ4KsFK5fOsxQA7J7TIk-201" value="0" style="text;html=1;strokeColor=none;fillColor=none;align=center;verticalAlign=middle;whiteSpace=wrap;rounded=0;" vertex="1" parent="1">
          <mxGeometry x="354" y="905" width="44" height="20" as="geometry" />
        </mxCell>
        <mxCell id="NQ4KsFK5fOsxQA7J7TIk-202" value="0" style="text;html=1;strokeColor=none;fillColor=none;align=center;verticalAlign=middle;whiteSpace=wrap;rounded=0;" vertex="1" parent="1">
          <mxGeometry x="396" y="905" width="44" height="20" as="geometry" />
        </mxCell>
        <mxCell id="NQ4KsFK5fOsxQA7J7TIk-203" value="P1" style="text;html=1;strokeColor=none;fillColor=none;align=center;verticalAlign=middle;whiteSpace=wrap;rounded=0;" vertex="1" parent="1">
          <mxGeometry x="164" y="960" width="40" height="20" as="geometry" />
        </mxCell>
        <mxCell id="NQ4KsFK5fOsxQA7J7TIk-204" value="" style="shape=flexArrow;endArrow=classic;html=1;width=10.344827586206897;endSize=4.868965517241379;" edge="1" parent="1">
          <mxGeometry width="50" height="50" relative="1" as="geometry">
            <mxPoint x="490.1999999999998" y="980" as="sourcePoint" />
            <mxPoint x="490" y="940" as="targetPoint" />
          </mxGeometry>
        </mxCell>
        <mxCell id="NQ4KsFK5fOsxQA7J7TIk-205" value="P2" style="text;html=1;strokeColor=none;fillColor=none;align=center;verticalAlign=middle;whiteSpace=wrap;rounded=0;rotation=0;" vertex="1" parent="1">
          <mxGeometry x="490" y="960" width="40" height="20" as="geometry" />
        </mxCell>
        <mxCell id="NQ4KsFK5fOsxQA7J7TIk-206" value="第4步" style="text;html=1;strokeColor=none;fillColor=none;align=center;verticalAlign=middle;whiteSpace=wrap;rounded=0;" vertex="1" parent="1">
          <mxGeometry x="30" y="906" width="44" height="20" as="geometry" />
        </mxCell>
        <mxCell id="NQ4KsFK5fOsxQA7J7TIk-207" value="" style="shape=flexArrow;endArrow=classic;html=1;width=8.8;endSize=3;" edge="1" parent="1">
          <mxGeometry width="50" height="50" relative="1" as="geometry">
            <mxPoint x="165" y="1040" as="sourcePoint" />
            <mxPoint x="165" y="1000" as="targetPoint" />
            <Array as="points">
              <mxPoint x="165" y="1030" />
            </Array>
          </mxGeometry>
        </mxCell>
        <mxCell id="NQ4KsFK5fOsxQA7J7TIk-208" value="P" style="text;html=1;strokeColor=none;fillColor=none;align=center;verticalAlign=middle;whiteSpace=wrap;rounded=0;" vertex="1" parent="1">
          <mxGeometry x="165" y="1020" width="40" height="20" as="geometry" />
        </mxCell>
        <mxCell id="NQ4KsFK5fOsxQA7J7TIk-209" value="-1" style="text;html=1;strokeColor=none;fillColor=none;align=center;verticalAlign=middle;whiteSpace=wrap;rounded=0;rotation=0;" vertex="1" parent="1">
          <mxGeometry x="470" y="905" width="40" height="20" as="geometry" />
        </mxCell>
        <mxCell id="NQ4KsFK5fOsxQA7J7TIk-210" value="&lt;span style=&quot;font-size: 18px ; text-align: left&quot;&gt;2. 5&amp;gt;3 :&amp;nbsp; p2 = 1 P=4 P1 =2&amp;nbsp; &amp;nbsp;nums1[P] = 5 p-- p2--&amp;nbsp;&lt;/span&gt;&lt;br style=&quot;font-size: 18px ; text-align: left&quot;&gt;" style="text;html=1;align=center;verticalAlign=middle;resizable=0;points=[];autosize=1;" vertex="1" parent="1">
          <mxGeometry x="710" y="350" width="420" height="20" as="geometry" />
        </mxCell>
        <mxCell id="NQ4KsFK5fOsxQA7J7TIk-211" value="&lt;span style=&quot;font-size: 18px ; text-align: left&quot;&gt;3. 2&amp;lt;3 :&amp;nbsp; p2 =0 p=3 p1=2&amp;nbsp; nums1[p] = 3 p-- p1--&lt;/span&gt;&lt;br style=&quot;font-size: 18px ; text-align: left&quot;&gt;&lt;br style=&quot;font-size: 18px ; text-align: left&quot;&gt;" style="text;html=1;align=center;verticalAlign=middle;resizable=0;points=[];autosize=1;" vertex="1" parent="1">
          <mxGeometry x="710" y="541" width="390" height="40" as="geometry" />
        </mxCell>
        <mxCell id="NQ4KsFK5fOsxQA7J7TIk-212" value="&lt;span style=&quot;font-size: 18px ; text-align: left&quot;&gt;4. 2==2 : p2=0 p=2 p1=1 nums1[p]=2 p-- p2--&lt;/span&gt;" style="text;html=1;align=center;verticalAlign=middle;resizable=0;points=[];autosize=1;" vertex="1" parent="1">
          <mxGeometry x="710" y="725" width="380" height="20" as="geometry" />
        </mxCell>
        <mxCell id="NQ4KsFK5fOsxQA7J7TIk-213" value="&lt;span style=&quot;font-size: 18px ; text-align: left&quot;&gt;5. p2=-1 ,合并结束&lt;/span&gt;" style="text;html=1;align=center;verticalAlign=middle;resizable=0;points=[];autosize=1;" vertex="1" parent="1">
          <mxGeometry x="820" y="910" width="160" height="20" as="geometry" />
        </mxCell>
      </root>
    </mxGraphModel>
  </diagram>
</mxfile>
